<?xml version="1.0" encoding="utf-8"?>
<!-- Generator: Adobe Illustrator 24.0.3, SVG Export Plug-In . SVG Version: 6.00 Build 0)  -->
<svg version="1.1" id="Laag_1" xmlns="http://www.w3.org/2000/svg" xmlns:xlink="http://www.w3.org/1999/xlink" x="0px" y="0px"
	 viewBox="0 0 748.5 407.2" style="enable-background:new 0 0 748.5 407.2;" xml:space="preserve">
<style type="text/css">
	.st0{fill:#FFFFFF;}
	.st1{fill:#ED1C24;}
</style>
<polygon class="st0" points="208,47.2 265.5,19.7 504.1,29.8 543.3,48.4 564.3,127.8 543.3,194.9 508.6,218.3 242.1,218.3 
	208,196.3 178.7,108.2 "/>
<g>
	<path class="st1" d="M2.6,266h70.3c6.3,0,10.5,3.3,12.7,10c0.4,1.2,0.7,2.5,0.7,3.8V293c0,4.8-2,8.7-6.1,11.8
		c-2.2,1.4-4.6,2.1-7.1,2.1H62.9l25.9,26.3v0.1H63.2l-39.9-39.7v-0.2H67v-12.5H21.7v0.1l-0.2,52.2l-0.1,0.1H2.6L2.3,333v-66.6
		L2.6,266z"/>
	<path class="st1" d="M96,266.8h18.4l0.3,0.3v52.8h45v-52.8l0.3-0.3h18.4l0.3,0.3v52.3c0,5.1-2.2,9.1-6.6,12.1
		c-2.1,1.2-4.4,1.7-6.9,1.7h-56c-6.6,0-11-3.4-13.1-10.2l-0.5-3.6v-52.3L96,266.8z"/>
	<path class="st1" d="M200.5,266.6h55.4c6.3,0,10.6,3.1,12.8,9.2c0.5,1.7,0.8,3.2,0.8,4.5v0.5l-0.3,0.3h-63.3v38.3h44.7v-12
		c0-0.3-5-2-14.9-5.2l-18.1-6.1v-0.3h51.6l0.3,0.3v23c0,4.4-1.9,8.3-5.6,11.4c-2.5,1.5-5,2.2-7.3,2.2h-56.2c-6.6,0-10.9-3.4-13-10.2
		l-0.5-3.6v-38.7c0-4.9,2.1-8.9,6.4-11.9C195.4,267.3,197.8,266.6,200.5,266.6z"/>
	<path class="st1" d="M277.6,266.7h69.1c6.2,0,10.4,3.3,12.5,9.8c0.4,1.2,0.6,2.4,0.6,3.8v9.8c0,3.8-1.5,7.3-4.4,10.4
		c2.9,3.1,4.4,6.6,4.4,10.4v8.3c0,4.8-2,8.6-5.9,11.6c-2.2,1.4-4.6,2.1-7,2.1h-69.3l-0.3-0.3v-65.5L277.6,266.7z M296.3,281.2V300
		l-0.1,19.5h44.7v-15.8h-40.5l-0.3-0.3v-12.7l0.3-0.3h40.5v-9.2H296.3z"/>
	<path class="st1" d="M368.3,265.9h24.6c1.1,1.1,8.3,10.1,21.9,27.1l0.1,0.2h0.2c14-17.6,21.3-26.7,22-27.3h24.6l0.2,0.1h0.1
		l-36.5,44v23l-0.3,0.3h-20.6l-0.3-0.3v-23L368,266.2L368.3,265.9z"/>
	<path class="st0" d="M473.2,266h70.3c6.3,0,10.5,3.3,12.7,10c0.4,1.2,0.7,2.5,0.7,3.8V293c0,4.8-2,8.7-6.1,11.8
		c-2.2,1.4-4.6,2.1-7.1,2.1h-10.2l25.9,26.3v0.1h-25.6l-39.9-39.7v-0.2h43.7v-12.5h-45.3v0.1l-0.2,52.2l-0.1,0.1h-18.8l-0.3-0.3
		v-66.6L473.2,266z"/>
	<path class="st0" d="M578.9,266.4H638c3.7,0,6.9,1.8,9.7,5.6c1.7,2.8,2.5,5.5,2.5,8.2v0.5l-0.3,0.3h-64v12.2h50.8
		c6.7,0,11,3.4,13.2,10.3l0.5,3.6v12.2c0,4.9-2.1,9-6.3,12c-1.6,0.9-3.6,1.6-5.8,1.9l-0.1,0.1h-58.9c-0.3-0.2-1.4-0.5-3.3-0.8
		c-3.1-1.1-5.5-3.1-7.1-6c-1.3-2.8-1.9-5-1.9-6.6l0.1-0.2h64.2v-11.8h-50.8c-6.7,0-11-3.4-13.2-10.3l-0.5-3.6v-13.8
		c0-5,2.2-9.1,6.6-12.2C575.5,266.9,577.3,266.4,578.9,266.4z"/>
	<path class="st0" d="M657.8,267.3H676l0.3,0.3V320h63.2l0.3,0.3v12.6l-0.3,0.3h-68.6c-6.6,0-10.9-3.4-13-10.1l-0.4-3.5v-52
		L657.8,267.3z"/>
</g>
<path class="st1" d="M215.6,43c0,0-33,79.1,0,158.1C215.6,201.1,70.1,119.4,215.6,43z"/>
<path class="st1" d="M533.5,43c0,0,33,79.1,0,158.1C533.5,201.1,679.1,119.4,533.5,43z"/>
<path class="st1" d="M233.5,35.1c0,0,123.6-79.1,281.7,0c0,0,37.5,81.3,0,179.6c0,0-116,72.4-281.7,0
	C233.5,214.6,195.7,118.2,233.5,35.1z"/>
<path class="st1" d="M0,242.2c0,0,86.1-70.6,170.1-86.6l26.5,32.6C196.6,188.2,113.3,188.7,0,242.2z"/>
<path class="st1" d="M748.5,242.2c0,0-86.1-70.6-170.1-86.6l-26.5,32.6C551.9,188.2,635.1,188.7,748.5,242.2z"/>
<g>
	<path class="st0" d="M4.3,361.5h4.4L8.3,365l0.1,0.1c1.8-2.8,4.6-4.3,8.7-4.3c5.6,0,8.4,2.9,8.4,8.6v2.1h-4.4l0.1-0.8
		c0.1-0.8,0.1-1.3,0.1-1.6c0-3.1-1.7-4.6-5.1-4.6c-4.9,0-7.4,3-7.4,9.1v18.1H4.4L4.3,361.5L4.3,361.5z"/>
	<path class="st0" d="M63.8,361.5v30.2h-4.4l0.3-4l-0.1-0.1c-1.5,3-4.8,4.5-9.9,4.5c-7.1,0-10.6-3.5-10.6-10.6v-20.1h4.4v20.2
		c0,2.7,0.5,4.6,1.4,5.5s2.7,1.4,5.3,1.4c3.5,0,5.9-0.7,7.2-2.1s1.9-3.9,1.9-7.6v-17.3H63.8z"/>
	<path class="st0" d="M106.9,361.5v32.2c0,4.4-0.9,7.4-2.8,9s-5.4,2.5-10.4,2.5c-4.5,0-7.6-0.7-9.2-2.1s-2.5-4-2.5-7.8h4.3
		c0,2.6,0.5,4.3,1.4,5.1c1,0.8,3.1,1.2,6.3,1.2c3.4,0,5.6-0.5,6.8-1.5s1.7-3,1.7-5.9v-6.1h-0.1c-1.1,2.8-4.4,4.2-9.9,4.2
		c-4.5,0-7.5-1.1-9.2-3.3s-2.5-6.2-2.5-12.1c0-6.1,0.9-10.2,2.6-12.4c1.7-2.2,4.9-3.3,9.6-3.3c5,0,8.2,1.5,9.7,4.6h0.1l-0.2-4.1h4.3
		C106.9,361.7,106.9,361.5,106.9,361.5z M93.7,364.7c-3.5,0-5.7,0.7-6.8,2.2c-1,1.5-1.5,4.7-1.5,9.6c0,5,0.5,8.2,1.5,9.7
		s3.3,2.2,6.8,2.2s5.8-0.8,7-2.5c1.1-1.6,1.7-5,1.7-10.2c0-4.6-0.6-7.5-1.7-9C99.5,365.4,97.2,364.7,93.7,364.7z"/>
	<path class="st0" d="M124.1,391.7v-43.1h4.4v16.8l0.1,0.1c1-2.9,4.3-4.4,9.9-4.4c4.4,0,7.5,1.1,9.2,3.4s2.5,6.5,2.5,12.5
		c0,5.7-0.9,9.7-2.7,11.9s-5,3.3-9.7,3.3s-7.9-1.4-9.5-4.2h-0.1l0.2,3.7L124.1,391.7L124.1,391.7z M137.4,364.7
		c-3.5,0-5.8,0.7-7,2.2s-1.8,4.4-1.8,8.9c0,5.5,0.5,8.9,1.6,10.4s3.5,2.2,7.4,2.2c3.2,0,5.4-0.8,6.4-2.3s1.6-4.7,1.6-9.4
		c0-5-0.5-8.3-1.5-9.8C143.1,365.5,140.8,364.7,137.4,364.7z"/>
	<path class="st0" d="M188.2,361.5l-8.6,32c-1.2,4.5-2.5,7.6-4,9.3c-1.5,1.7-3.6,2.5-6.3,2.5c-0.5,0-1.3-0.1-2.1-0.2v-3.7
		c0.6,0.1,1.1,0.2,1.5,0.2c2.4,0.1,4.2-1.8,5.3-5.8l0.9-3c0-0.1,0.1-0.5,0.3-1.1h-1.7l-10.9-30.2h4.7l4.6,13.5l2.3,6.7l1.1,3.4
		l1.2,3.4h0.1l0.8-3.4l0.8-3.4l1.7-6.7l3.4-13.5L188.2,361.5L188.2,361.5z"/>
	<path class="st0" d="M217.5,361.5v3.7h-11.6v18.5c0,3.2,1.4,4.8,4.3,4.8c2.8,0,4.3-1.4,4.3-4.3v-1.5l0.1-1.7h4.1v2.2
		c0,5.9-2.8,8.9-8.5,8.9c-5.8,0-8.8-2.5-8.8-7.4v-1.1v-18.5h-4.2v-3.7h4.2v-7.3h4.4v7.3h11.7V361.5z"/>
	<path class="st0" d="M253.1,382.6h4.5v1.1c0,3.1-1,5.3-2.9,6.6c-1.9,1.3-5.3,1.9-10,1.9c-5.6,0-9.2-1-11-3.1
		c-1.7-2-2.6-6.3-2.6-12.8c0-6,0.9-10.1,2.6-12.1c1.8-2.1,5.2-3.1,10.3-3.1c5.6,0,9.2,0.9,10.9,2.7c1.7,1.8,2.6,5.6,2.6,11.3v2.4
		h-21.8c0,4.8,0.5,7.8,1.5,9.1c1,1.3,3.4,2,7.2,2c3.6,0,5.9-0.3,6.9-0.9c1.1-0.6,1.6-2,1.6-4v-1.1H253.1z M253.1,374v-1.4
		c0-3.3-0.5-5.4-1.6-6.4s-3.4-1.5-7-1.5s-5.9,0.6-7,1.7s-1.6,3.7-1.6,7.5L253.1,374L253.1,374z"/>
	<path class="st0" d="M278.8,370h-4.4c0-3.5,0.8-5.9,2.4-7.1s4.7-1.8,9.3-1.8c5,0,8.4,0.7,10.2,2.2c1.8,1.5,2.7,4.3,2.7,8.5v20h-4.5
		l0.3-3.3h-0.1c-1.7,2.5-5.1,3.7-10.3,3.7c-7.6,0-11.4-3.1-11.4-9.2c0-3.6,0.9-6.2,2.6-7.6s4.8-2.1,9.3-2.1c5.3,0,8.5,1,9.6,3.1h0.1
		v-3.7c0-3.5-0.5-5.7-1.4-6.7s-3-1.5-6.2-1.5c-5.4,0-8.2,1.5-8.2,4.6C278.7,369.2,278.7,369.5,278.8,370z M285.9,376.8
		c-3.4,0-5.6,0.4-6.6,1.1s-1.5,2.3-1.5,4.6c0,2.4,0.5,4.1,1.5,4.9s3.1,1.2,6.2,1.2c6.2,0,9.4-1.9,9.4-5.7c0-2.4-0.6-4-1.8-4.8
		C291.7,377.2,289.4,376.8,285.9,376.8z"/>
	<path class="st0" d="M316.7,361.5h4.4l-0.1,4.6l0.1,0.1c1.7-3.4,5-5.1,9.9-5.1c5.1,0,8.2,1.7,9.3,5.1h0.1c1.9-3.4,5.4-5.1,10.4-5.1
		c7.1,0,10.7,3.6,10.7,10.9v19.8h-4.4v-20.2c0-2.7-0.5-4.5-1.4-5.4s-2.7-1.4-5.4-1.4c-3.5,0-5.9,0.7-7.1,2s-1.9,3.8-1.9,7.5v17.5
		h-4.4V372l-0.1-1.4c0-3.9-2.2-5.9-6.7-5.9c-6,0-9,3.3-9,9.8v17.2h-4.4V361.5z"/>
	<path class="st0" d="M405.9,361.5h4.4l-0.4,3.5l0.1,0.1c1.8-2.8,4.6-4.3,8.7-4.3c5.6,0,8.3,2.9,8.3,8.6v2.1h-4.4l0.1-0.8
		c0.1-0.8,0.1-1.3,0.1-1.6c0-3.1-1.7-4.6-5.1-4.6c-4.9,0-7.4,3-7.4,9.1v18.1h-4.4L405.9,361.5L405.9,361.5z"/>
	<path class="st0" d="M453.2,361.1c5.6,0,9.2,1,10.9,2.9s2.5,6.2,2.5,12.7s-0.8,10.7-2.5,12.7c-1.7,1.9-5.3,2.9-10.9,2.9
		s-9.2-1-10.8-2.9c-1.7-1.9-2.5-6.2-2.5-12.7s0.8-10.7,2.5-12.7C444.1,362,447.7,361.1,453.2,361.1z M453.2,364.7
		c-3.9,0-6.4,0.6-7.3,1.9s-1.4,4.6-1.4,10s0.5,8.7,1.4,10s3.4,1.9,7.3,1.9s6.4-0.6,7.3-1.9s1.4-4.6,1.4-10s-0.5-8.7-1.4-10
		S457.2,364.7,453.2,364.7z"/>
	<path class="st0" d="M504.1,382.6h4.5v1.1c0,3.1-1,5.3-2.9,6.6c-1.9,1.3-5.3,1.9-10,1.9c-5.6,0-9.2-1-11-3.1
		c-1.7-2-2.6-6.3-2.6-12.8c0-6,0.9-10.1,2.6-12.1c1.8-2.1,5.2-3.1,10.3-3.1c5.6,0,9.2,0.9,10.9,2.7c1.7,1.8,2.6,5.6,2.6,11.3v2.4
		h-21.8c0,4.8,0.5,7.8,1.5,9.1c1,1.3,3.4,2,7.2,2c3.6,0,5.9-0.3,6.9-0.9c1.1-0.6,1.6-2,1.6-4v-1.1H504.1z M504.1,374v-1.4
		c0-3.3-0.5-5.4-1.6-6.4s-3.4-1.5-7-1.5s-5.9,0.6-7,1.7s-1.6,3.7-1.6,7.5L504.1,374L504.1,374z"/>
	<path class="st0" d="M548.5,369.4h-4.4c0-2.1-0.4-3.4-1.3-3.9c-0.9-0.5-3.1-0.8-6.6-0.8c-3.3,0-5.4,0.3-6.3,0.8
		c-0.9,0.5-1.3,1.8-1.3,3.9c0,3.1,1.5,4.7,4.5,4.9l3.6,0.2l4.5,0.2c5.5,0.3,8.2,3.1,8.2,8.6c0,3.4-0.9,5.7-2.7,7s-5.1,1.9-10,1.9
		c-5,0-8.4-0.6-10.2-1.8c-1.9-1.2-2.8-3.4-2.8-6.6v-1.6h4.6v1.4c0,2,0.5,3.3,1.5,4s3,1,6,1c3.6,0,6-0.3,7.2-1
		c1.1-0.7,1.7-2.2,1.7-4.4c0-3.2-1.4-4.8-4.3-4.8c-6.7,0-11.1-0.6-13.3-1.7s-3.2-3.5-3.2-7.1c0-3.4,0.8-5.7,2.5-6.8
		c1.7-1.1,5-1.7,10-1.7c8,0,12,2.4,12,7.2L548.5,369.4L548.5,369.4z"/>
	<path class="st0" d="M586.3,382.6h4.5v1.1c0,3.1-1,5.3-2.9,6.6c-1.9,1.3-5.3,1.9-10,1.9c-5.6,0-9.2-1-11-3.1
		c-1.7-2-2.6-6.3-2.6-12.8c0-6,0.9-10.1,2.6-12.1c1.8-2.1,5.2-3.1,10.3-3.1c5.6,0,9.2,0.9,10.9,2.7c1.7,1.8,2.6,5.6,2.6,11.3v2.4
		h-21.8c0,4.8,0.5,7.8,1.5,9.1c1,1.3,3.4,2,7.2,2c3.6,0,5.9-0.3,6.9-0.9c1.1-0.6,1.6-2,1.6-4v-1.1H586.3z M586.3,374v-1.4
		c0-3.3-0.5-5.4-1.6-6.4s-3.4-1.5-7-1.5s-5.9,0.6-7,1.7s-1.6,3.7-1.6,7.5L586.3,374L586.3,374z"/>
	<path class="st0" d="M611.8,348.6v43.2h-4.4v-43.2H611.8z"/>
	<path class="st0" d="M633.7,370h-4.4c0-3.5,0.8-5.9,2.4-7.1c1.6-1.2,4.7-1.8,9.3-1.8c5,0,8.4,0.7,10.2,2.2s2.7,4.3,2.7,8.5v20h-4.4
		l0.3-3.3h-0.1c-1.7,2.5-5.1,3.7-10.3,3.7c-7.6,0-11.5-3.1-11.5-9.2c0-3.6,0.9-6.2,2.6-7.6s4.8-2.1,9.3-2.1c5.3,0,8.5,1,9.6,3.1h0.1
		v-3.7c0-3.5-0.5-5.7-1.4-6.7s-3-1.5-6.2-1.5c-5.4,0-8.2,1.5-8.2,4.6C633.7,369.2,633.7,369.5,633.7,370z M640.8,376.8
		c-3.4,0-5.6,0.4-6.6,1.1s-1.5,2.3-1.5,4.6c0,2.4,0.5,4.1,1.5,4.9s3.1,1.2,6.2,1.2c6.2,0,9.4-1.9,9.4-5.7c0-2.4-0.6-4-1.8-4.8
		C646.7,377.2,644.3,376.8,640.8,376.8z"/>
	<path class="st0" d="M672.1,361.5h4.4l-0.4,3.5l0.1,0.1c1.8-2.8,4.6-4.3,8.7-4.3c5.6,0,8.3,2.9,8.3,8.6v2.1h-4.4l0.1-0.8
		c0.1-0.8,0.1-1.3,0.1-1.6c0-3.1-1.7-4.6-5.1-4.6c-4.9,0-7.4,3-7.4,9.1v18.1h-4.4L672.1,361.5L672.1,361.5z"/>
	<path class="st0" d="M728,382.6h4.5v1.1c0,3.1-1,5.3-2.9,6.6c-1.9,1.3-5.3,1.9-10,1.9c-5.6,0-9.2-1-11-3.1c-1.7-2-2.6-6.3-2.6-12.8
		c0-6,0.9-10.1,2.6-12.1c1.8-2.1,5.2-3.1,10.3-3.1c5.6,0,9.2,0.9,10.9,2.7c1.7,1.8,2.6,5.6,2.6,11.3v2.4h-21.8
		c0,4.8,0.5,7.8,1.5,9.1c1,1.3,3.4,2,7.2,2c3.6,0,5.9-0.3,6.9-0.9c1.1-0.6,1.6-2,1.6-4v-1.1H728z M728,374v-1.4
		c0-3.3-0.5-5.4-1.6-6.4s-3.4-1.5-7-1.5s-5.9,0.6-7,1.7s-1.6,3.7-1.6,7.5L728,374L728,374z"/>
</g>
<g>
	<g>
		<path class="st0" d="M422.7,185.7c-0.2-0.7-0.4-1.6-0.6-2.7c-0.2-1-0.2-2.3-0.2-3.8v-37c0-3.2-1.6-4.8-4.8-4.8h-28v48.2h-27.8
			V63.5H427c14.8,0,22.2,7.6,22.2,22.8v19.3c0,11-4.5,17.4-13.5,19c4.8,1.1,8.3,3.1,10.5,5.9c2.2,2.9,3.3,6.7,3.3,11.6v36.2
			c0,2.1,0.1,3.7,0.2,4.7s0.3,1.9,0.6,2.7H422.7L422.7,185.7z M421.9,98.2c0-3.2-1.6-4.8-4.8-4.8h-28v18.2h28c3.2,0,4.8-1.6,4.8-4.8
			V98.2z"/>
	</g>
	<g>
		<path class="st0" d="M304.4,185.7c0.2-0.9,0.4-1.8,0.6-2.7c0.2-1,0.2-2.5,0.2-4.7v-36.2c0-4.8,1.1-8.7,3.3-11.6
			c2.2-2.9,5.7-4.9,10.5-5.9c-9-1.6-13.5-7.9-13.5-19V86.3c0-15.2,7.4-22.8,22.2-22.8h65.8v122.1h-27.8v-48.2h-28
			c-3.2,0-4.8,1.6-4.8,4.8v37c0,1.5-0.1,2.8-0.2,3.8c-0.2,1-0.3,1.9-0.6,2.7L304.4,185.7L304.4,185.7z M332.9,106.8
			c0,3.2,1.6,4.8,4.8,4.8h28V93.4h-28c-3.2,0-4.8,1.6-4.8,4.8V106.8z"/>
	</g>
</g>
</svg>
